<?xml version="1.0" standalone="no"?>
<!DOCTYPE svg PUBLIC "-//W3C//DTD SVG 20010904//EN"
 "http://www.w3.org/TR/2001/REC-SVG-20010904/DTD/svg10.dtd">
<svg version="1.0" xmlns="http://www.w3.org/2000/svg"
 width="618.000000pt" height="618.000000pt" viewBox="0 0 618.000000 618.000000"
 preserveAspectRatio="xMidYMid meet">
<metadata>
Created by potrace 1.14, written by Peter Selinger 2001-2017
</metadata>
<g transform="translate(0.000000,618.000000) scale(0.100000,-0.100000)"
fill="#000000" stroke="none">
<path d="M2860 5454 c-348 -32 -637 -97 -912 -208 -745 -298 -1334 -864 -1648
-1580 -111 -254 -176 -479 -223 -776 -30 -188 -31 -620 -3 -818 l19 -132 -27
-59 c-34 -77 -46 -143 -46 -263 0 -109 18 -177 73 -283 42 -80 104 -140 204
-198 75 -44 90 -49 180 -59 110 -11 256 -5 324 15 l44 13 62 -47 c100 -76 248
-117 458 -126 156 -6 202 2 328 59 l67 31 79 -37 c104 -49 181 -62 282 -48
149 21 289 93 427 217 149 134 252 365 252 564 0 94 -15 161 -58 251 -28 61
-53 93 -131 170 -122 121 -188 160 -348 206 -19 5 -17 147 3 242 33 162 93
271 219 397 105 106 196 161 330 201 123 37 299 39 423 6 332 -90 568 -375
583 -705 l4 -78 -97 -33 c-171 -57 -262 -135 -334 -282 -51 -105 -75 -205 -76
-320 -1 -192 110 -363 287 -445 58 -26 61 -29 78 -85 21 -69 108 -205 168
-263 67 -65 158 -126 275 -186 l107 -55 121 0 c178 0 239 12 348 66 51 26 114
62 141 80 26 19 51 34 57 34 5 0 32 -14 60 -30 169 -100 286 -124 460 -95 138
22 186 38 302 97 79 40 110 63 171 127 92 97 116 152 121 283 3 82 7 94 35
133 80 111 129 291 117 424 -6 67 -47 169 -91 228 -14 17 -23 38 -20 45 15 43
24 351 15 500 -47 732 -327 1376 -829 1900 -476 497 -1100 810 -1801 903 -111
15 -488 27 -580 19z m421 -514 c433 -44 809 -177 1164 -413 591 -393 995
-1030 1100 -1737 19 -126 33 -529 19 -531 -49 -5 -64 -4 -64 5 0 6 -5 4 -10
-4 -7 -11 -10 -11 -10 -2 0 7 -4 10 -10 7 -5 -3 -10 -3 -11 2 0 4 -2 94 -4
198 -2 105 -6 201 -9 215 -2 14 -7 45 -10 70 -7 54 -14 91 -27 150 -6 25 -13
54 -15 65 -10 49 -14 63 -28 108 -8 26 -13 47 -10 47 2 0 -2 10 -10 23 -7 12
-12 30 -11 40 2 9 0 17 -4 17 -4 0 -20 36 -36 80 -16 44 -33 80 -38 80 -4 0
-5 5 -2 10 3 6 -3 24 -15 40 -12 17 -18 30 -14 30 4 0 -1 7 -12 16 -10 8 -12
12 -5 8 8 -4 4 8 -10 27 -13 19 -24 36 -24 39 0 9 -49 85 -57 88 -5 2 -6 8 -2
13 3 5 0 9 -7 9 -7 0 -10 3 -6 6 3 4 1 12 -6 20 -29 32 -37 44 -32 44 6 0 -4
13 -33 45 -7 8 -11 15 -8 15 3 0 -3 10 -13 23 -10 12 -49 60 -86 107 -70 88
-257 279 -334 340 -23 19 -57 47 -74 62 -18 15 -35 28 -39 28 -4 0 -13 6 -20
13 -32 31 -224 151 -293 184 -22 10 -42 20 -45 23 -6 6 -130 65 -139 66 -3 0
-15 4 -26 9 -112 46 -200 75 -232 77 -7 1 -13 6 -13 11 0 6 -3 8 -6 5 -3 -4
-20 -2 -37 3 -33 11 -49 14 -107 26 -47 9 -50 10 -52 13 -3 2 -12 3 -93 14
-27 4 -61 9 -75 12 -88 16 -331 21 -470 10 -103 -8 -110 -9 -185 -20 -90 -14
-95 -15 -102 -19 -5 -3 -24 -8 -43 -11 -19 -3 -45 -8 -57 -11 -13 -3 -32 -7
-43 -9 -11 -3 -24 -7 -28 -10 -5 -3 -19 -7 -33 -10 -34 -6 -172 -53 -244 -83
-81 -33 -271 -129 -305 -153 -16 -11 -33 -20 -39 -20 -6 0 -11 -4 -11 -8 0 -5
-15 -15 -33 -24 -38 -18 -210 -145 -215 -159 -2 -5 -10 -9 -18 -9 -9 0 -12 -4
-9 -10 3 -5 1 -10 -5 -10 -10 0 -65 -49 -169 -151 -15 -15 -56 -59 -91 -99
-36 -40 -71 -79 -78 -86 -7 -8 -11 -14 -8 -14 3 0 -5 -11 -17 -24 -12 -13 -26
-30 -32 -38 -53 -72 -73 -107 -67 -113 4 -5 2 -5 -4 -2 -7 4 -17 -6 -24 -23
-7 -17 -17 -30 -23 -30 -6 0 -8 -3 -4 -6 3 -4 -1 -13 -9 -21 -8 -8 -12 -19 -9
-24 4 -5 2 -9 -3 -9 -5 0 -17 -18 -28 -40 -10 -22 -23 -40 -27 -40 -5 0 -6 -4
-3 -9 3 -5 -1 -14 -9 -21 -8 -7 -12 -16 -9 -21 3 -5 0 -9 -6 -9 -6 0 -9 -4 -6
-9 3 -5 -1 -14 -9 -21 -8 -7 -12 -16 -9 -21 3 -5 0 -9 -5 -9 -6 0 -10 -3 -9
-7 1 -5 -9 -30 -21 -58 -13 -27 -24 -54 -25 -60 -1 -5 -4 -14 -7 -20 -19 -31
-93 -290 -105 -365 -3 -19 -8 -38 -9 -41 -4 -5 -8 -31 -24 -164 -5 -38 -8
-168 -8 -288 1 -119 -2 -217 -6 -217 -5 0 -5 -4 -2 -10 3 -6 1 -10 -5 -10 -6
0 -8 -4 -5 -10 3 -5 1 -10 -6 -10 -7 0 -10 -3 -7 -6 4 -3 31 15 62 39 30 25
82 55 116 68 33 12 60 24 60 28 0 3 -7 15 -15 25 -31 41 -7 406 41 614 171
750 725 1368 1449 1615 310 106 636 145 930 111 522 -60 962 -266 1327 -623
421 -409 657 -951 670 -1536 2 -71 8 -133 13 -137 6 -5 5 -8 -2 -8 -7 0 -13
-5 -13 -11 0 -5 5 -7 12 -3 6 4 8 3 5 -3 -4 -6 1 -32 9 -57 l16 -47 42 8 c66
13 184 8 275 -11 239 -50 352 -183 353 -418 0 -99 -16 -158 -66 -235 -18 -29
-25 -58 -30 -121 -9 -113 -35 -176 -102 -251 -63 -70 -149 -119 -255 -146
-121 -32 -274 -8 -446 71 -42 19 -84 34 -93 34 -10 0 -42 -20 -72 -43 -147
-120 -247 -152 -464 -149 -107 2 -239 36 -323 85 -92 52 -191 169 -221 262
-20 60 -36 80 -107 131 -75 53 -143 141 -170 217 -14 39 -18 82 -18 172 0 111
2 124 28 177 53 108 167 208 286 250 60 22 195 29 263 15 37 -8 37 -7 48 32
17 64 87 159 154 209 121 90 306 162 416 162 36 0 49 3 44 12 -5 7 -3 8 7 2 8
-5 16 -9 19 -9 31 -4 86 -18 90 -24 3 -4 28 -21 55 -39 28 -17 66 -46 85 -63
l35 -31 3 30 c2 17 -2 40 -8 52 -6 11 -8 25 -5 30 3 6 0 10 -7 10 -9 0 -9 3 2
10 8 5 10 10 5 10 -6 0 -11 12 -10 28 0 15 -2 41 -6 57 -4 17 -10 44 -12 60
-7 42 -34 143 -53 196 -8 24 -17 51 -19 60 -12 57 -101 254 -165 366 -28 47
-50 90 -50 94 0 5 -4 9 -10 9 -5 0 -10 4 -10 10 0 11 -95 149 -114 165 -6 6
-22 24 -35 40 -43 56 -217 229 -287 285 -46 37 -192 140 -224 158 -19 11 -63
36 -98 55 -110 63 -342 159 -417 173 -6 1 -44 11 -85 22 -73 20 -129 30 -200
37 -19 2 -57 6 -85 9 -56 6 -333 7 -380 2 -16 -2 -57 -6 -90 -10 -137 -15
-346 -69 -470 -121 -16 -7 -41 -16 -55 -20 -34 -10 -245 -121 -295 -155 -22
-15 -51 -34 -65 -43 -152 -101 -331 -263 -439 -397 -28 -36 -58 -72 -66 -81
-8 -9 -15 -21 -15 -27 0 -5 -4 -12 -8 -14 -19 -8 -120 -176 -187 -313 -89
-181 -149 -354 -184 -535 -20 -98 -22 -122 -28 -280 -3 -85 -10 -163 -15 -172
-8 -16 -3 -18 46 -18 30 0 61 -3 69 -6 17 -6 38 44 32 76 -2 11 -1 19 3 17 4
-1 8 1 10 6 1 4 11 16 21 26 16 16 19 31 17 73 -1 29 3 82 10 118 6 36 15 86
18 112 8 62 50 220 80 306 135 386 403 731 749 962 807 539 1904 380 2526
-365 193 -233 309 -462 400 -796 22 -77 28 -154 12 -145 -5 3 -26 8 -47 12
-25 3 -46 14 -57 30 -11 14 -24 21 -30 17 -9 -5 -9 -3 -1 8 6 8 10 22 8 33 -7
46 -28 122 -51 184 -24 66 -31 89 -32 105 -1 5 -6 5 -13 1 -6 -4 -8 -3 -5 3 4
6 -11 44 -33 84 -22 41 -43 81 -47 89 -4 8 -25 41 -47 73 -23 33 -45 67 -51
76 -5 9 -12 18 -15 21 -3 3 -21 25 -40 50 -40 54 -270 286 -270 274 0 -5 -4
-4 -8 2 -9 15 -108 88 -185 137 -66 43 -217 119 -285 146 -26 10 -56 22 -67
26 -11 5 -22 9 -25 10 -3 1 -12 4 -20 7 -45 16 -89 28 -119 33 -19 3 -37 7
-40 9 -3 2 -24 7 -45 10 -21 4 -48 8 -60 11 -127 27 -465 27 -596 0 -14 -3
-38 -8 -55 -11 -44 -9 -60 -12 -60 -14 0 -1 -9 -3 -20 -4 -49 -7 -250 -81
-350 -131 -306 -149 -531 -352 -760 -683 -24 -33 -124 -232 -118 -232 3 0 0
-7 -7 -15 -7 -8 -9 -15 -5 -15 4 0 3 -6 -2 -12 -28 -37 -97 -299 -87 -330 3
-10 1 -18 -5 -18 -6 0 -11 -5 -11 -11 0 -5 5 -7 11 -3 16 10 -21 -47 -48 -75
-14 -12 -21 -26 -18 -29 4 -4 13 2 21 12 8 11 14 17 14 14 0 -3 30 5 68 18
145 51 322 14 426 -90 78 -77 142 -185 160 -268 6 -28 8 -28 84 -28 269 -1
501 -158 573 -389 27 -89 25 -225 -5 -313 -74 -221 -247 -329 -502 -314 -64 3
-130 15 -185 31 -175 54 -148 54 -262 -3 -122 -62 -201 -82 -322 -82 -123 0
-192 20 -305 88 l-95 57 -90 2 c-383 7 -591 125 -612 346 -19 204 120 367 325
381 46 4 57 8 64 25 4 12 4 21 -1 21 -26 0 -41 116 -45 340 -10 605 193 1187
579 1655 395 479 979 807 1585 889 63 9 133 18 155 19 96 8 341 6 436 -3z
m-63 -1120 c185 -24 370 -86 522 -176 121 -72 150 -93 150 -107 0 -8 -3 -9 -8
-1 -17 25 -177 121 -194 116 -5 -1 -8 2 -8 7 0 7 -17 16 -70 36 -3 1 -18 8
-35 15 -16 7 -32 14 -35 15 -3 0 -30 9 -60 20 -30 10 -59 20 -65 21 -159 36
-179 38 -345 39 -159 0 -218 -4 -290 -20 -14 -3 -36 -7 -49 -10 -50 -9 -190
-60 -271 -98 -47 -22 -87 -41 -90 -42 -10 -2 -126 -79 -165 -109 -22 -17 -34
-23 -27 -14 26 33 195 140 295 188 132 63 275 103 442 123 66 8 225 6 303 -3z
m-1058 -323 c0 -2 -10 -12 -22 -23 l-23 -19 19 23 c18 21 26 27 26 19z m1880
-82 c13 -14 21 -25 18 -25 -2 0 -15 11 -28 25 -13 14 -21 25 -18 25 2 0 15
-11 28 -25z m-2915 -934 c3 -5 2 -12 -3 -15 -5 -3 -9 1 -9 9 0 17 3 19 12 6z"/>
<path d="M4632 2461 c-165 -61 -252 -143 -292 -276 -29 -98 -82 -121 -231
-101 -123 17 -280 -53 -344 -154 -58 -92 -63 -173 -18 -268 35 -74 89 -124
163 -151 67 -25 72 -32 90 -121 6 -30 20 -74 32 -98 29 -56 115 -137 175 -163
144 -62 377 -65 501 -6 60 27 129 96 170 170 18 31 36 57 41 57 5 0 16 3 25 6
9 4 38 -16 79 -54 74 -69 112 -91 217 -123 191 -59 378 -4 465 136 28 45 30
56 34 162 l3 113 35 34 c38 36 65 112 58 163 -6 46 -33 101 -70 142 -43 47
-120 83 -244 112 -87 21 -99 21 -155 9 -78 -18 -129 -18 -151 0 -22 18 -138
195 -177 270 -25 47 -98 133 -98 115 0 -3 -10 1 -22 9 -56 36 -208 45 -286 17z"/>
<path d="M1395 2433 c-36 -10 -66 -39 -153 -149 -12 -16 -34 -52 -47 -81 -32
-67 -56 -83 -123 -83 -45 0 -165 -23 -245 -46 -33 -10 -76 -55 -88 -92 -13
-40 -69 -116 -98 -131 -9 -5 -50 -12 -91 -16 -40 -4 -93 -16 -117 -27 -102
-48 -149 -174 -96 -255 59 -89 265 -152 452 -139 133 10 130 10 175 -23 151
-113 217 -137 353 -128 111 7 197 38 283 104 46 35 79 53 98 53 15 0 65 -18
111 -40 96 -46 233 -75 321 -67 59 5 157 36 196 62 63 41 126 174 126 262 0
65 -16 114 -57 179 -44 68 -87 107 -165 148 -91 47 -161 66 -251 66 -42 0 -91
3 -108 6 -41 8 -82 50 -100 100 -53 150 -123 244 -209 280 -40 16 -135 26
-167 17z"/>
<path d="M865 2269 c-3 -4 2 -6 10 -5 21 3 28 13 10 13 -9 0 -18 -4 -20 -8z"/>
</g>
</svg>
